# xmcd CD database file
#
# Track frame offsets:
#	150
#	25562
#	45655
#	75722
#	97572
#	133725
#	167937
#	186242
#	210667
#	238427
#	263307
#
# Disc length: 3814 seconds
#
# Revision: 0
# Processed by: cddbd v1.5.2PL0 Copyright (c) Steve Scherf et al.
# Submitted via: CDex 1.70beta2
#
DISCID=880ee40b
DTITLE=Rinus Greenfield Jazz Quartet - Wild orchid
DYEAR=1999
DGENRE=Jazz
TTITLE0=Lovin' you
TTITLE1=Als een wilde orchidee
TTITLE2=The breeze and I
TTITLE3=St. James Infirmary
TTITLE4=If I where a bell
TTITLE5=Chelsea Bridge
TTITLE6=In the air tonight
TTITLE7=Suicide is painless
TTITLE8=The fool on the hill
TTITLE9=From the time we say goodbye
TTITLE10=In the air
EXTD=YEAR: 1999
EXTT0=
EXTT1=
EXTT2=
EXTT3=
EXTT4=
EXTT5=
EXTT6=
EXTT7=
EXTT8=
EXTT9=
EXTT10=
PLAYORDER=
